<svg width="64" height="64" viewBox="0 0 64 64" fill="none" xmlns="http://www.w3.org/2000/svg">
<path d="M45.8936 33.0436C45.8337 26.3638 51.3492 23.157 51.5987 23.0006C48.495 18.4599 43.6648 17.8378 41.9416 17.7646C37.8333 17.3488 33.9212 20.183 31.8387 20.183C29.7563 20.183 26.5362 17.8245 23.1297 17.891C18.6455 17.9576 14.5172 20.4957 12.2086 24.5076C7.55467 32.5812 11.021 44.547 15.5518 51.1003C17.7706 54.3039 20.4119 57.9132 23.8849 57.7801C27.2314 57.6471 28.4955 55.6178 32.534 55.6178C36.5725 55.6178 37.7102 57.7801 41.2463 57.7169C44.8424 57.6471 47.1244 54.4435 49.3266 51.2301C51.8681 47.5109 52.9193 43.9116 52.9792 43.722C52.8994 43.6887 45.9668 41.0308 45.8936 33.0436Z" fill="#2C3A45"/>
<path d="M39.2503 13.4295C41.0932 11.1974 42.3373 8.09361 41.9946 5C39.3398 5.10657 36.1265 6.76978 34.2203 9.00192C32.5138 10.9747 31.0169 14.1348 31.4225 17.1655C34.3833 17.395 37.4071 15.6584 39.2503 13.4295Z" fill="#2C3A45"/>
</svg>
