<svg width="48" height="48" viewBox="0 0 48 48" fill="none" xmlns="http://www.w3.org/2000/svg">
<path d="M14 27.5L13.7522 27.438C10.8304 26.7076 8 28.9175 8 31.9292V31.9292C8 34.7297 10.2703 37 13.0708 37H13.8921C17.4396 37 20.051 33.6789 19.2143 30.2315L16.8082 20.3184C15.6462 15.5313 18.9295 10.805 23.8211 10.2232L26.3129 9.92676C30.7207 9.40243 34.7977 12.3356 35.7017 16.6816L37.1223 23.5111C37.5288 25.4659 35.7543 27.1745 33.8163 26.6943L33.6106 26.6433C30.2962 25.8219 27.0909 28.3299 27.0909 31.7445V31.7445C27.0909 34.647 29.4439 37 32.3464 37H32.5455C35.5579 37 38 34.5579 38 31.5455V31" stroke="#6F86D6" stroke-width="3" stroke-linecap="round"/>
</svg>
