<?xml version="1.0" encoding="UTF-8" standalone="no"?>
<!DOCTYPE svg PUBLIC "-//W3C//DTD SVG 1.1//EN" "http://www.w3.org/Graphics/SVG/1.1/DTD/svg11.dtd">
<svg width="100%" height="100%" viewBox="0 0 24 24" version="1.1" xmlns="http://www.w3.org/2000/svg" xmlns:xlink="http://www.w3.org/1999/xlink" xml:space="preserve" xmlns:serif="http://www.serif.com/" style="fill-rule:evenodd;clip-rule:evenodd;stroke-linejoin:round;stroke-miterlimit:2;">
    <g id="Checkmark" transform="matrix(0.909091,0,0,0.909091,1.09091,1.09091)">
        <path d="M12,21C16.971,21 21,16.971 21,12C21,7.029 16.971,3 12,3C7.029,3 3,7.029 3,12C3,16.971 7.029,21 12,21ZM12,23C18.075,23 23,18.075 23,12C23,5.925 18.075,1 12,1C5.925,1 1,5.925 1,12C1,18.075 5.925,23 12,23Z" style="fill:rgb(111,134,214);"/>
        <path d="M17.707,9.707L10.5,16.914L6.293,12.707L7.707,11.293L10.5,14.086L16.293,8.293L17.707,9.707Z" style="fill:rgb(111,134,214);"/>
    </g>
</svg>
