<svg width="64" height="64" viewBox="0 0 64 64" fill="none" xmlns="http://www.w3.org/2000/svg">
<path d="M55.9999 32.5332C55.9999 30.5599 55.8366 29.1199 55.483 27.6266H32.4897V36.5331H45.9862C45.7142 38.7465 44.2448 42.0799 40.9795 44.3198L40.9337 44.618L48.2037 50.1373L48.7074 50.1866C53.3332 45.9999 55.9999 39.8398 55.9999 32.5332Z" fill="#4285F4"/>
<path d="M32.4899 56C39.1021 56 44.653 53.8666 48.7076 50.1867L40.9797 44.3199C38.9117 45.7333 36.1361 46.7199 32.4899 46.7199C26.0138 46.7199 20.5172 42.5334 18.5578 36.7467L18.2706 36.7706L10.7112 42.504L10.6123 42.7733C14.6395 50.6132 22.9116 56 32.4899 56Z" fill="#34A853"/>
<path d="M18.5577 36.7467C18.0407 35.2534 17.7415 33.6533 17.7415 32.0001C17.7415 30.3466 18.0407 28.7467 18.5305 27.2534L18.5168 26.9353L10.8626 21.1099L10.6122 21.2266C8.95239 24.48 8 28.1334 8 32.0001C8 35.8667 8.95239 39.5199 10.6122 42.7733L18.5577 36.7467Z" fill="#FBBC05"/>
<path d="M32.4899 17.2799C37.0884 17.2799 40.1904 19.2266 41.9592 20.8534L48.8707 14.24C44.6259 10.3733 39.102 8 32.4899 8C22.9115 8 14.6394 13.3866 10.6122 21.2266L18.5306 27.2533C20.5171 21.4667 26.0137 17.2799 32.4899 17.2799Z" fill="#EB4335"/>
</svg>
