<svg width="64" height="64" viewBox="0 0 64 64" fill="none" xmlns="http://www.w3.org/2000/svg">
<path d="M23.3074 51.6725C41.6759 51.6725 51.7209 36.4109 51.7209 23.1766C51.7209 22.7431 51.712 22.3116 51.6927 21.8821C53.6425 20.4684 55.3373 18.7042 56.674 16.6959C54.8847 17.4936 52.9592 18.0305 50.9392 18.2727C53.001 17.0328 54.5838 15.0714 55.3306 12.7332C53.4011 13.8804 51.2644 14.7141 48.9893 15.1643C47.167 13.2176 44.5726 12 41.6999 12C36.1851 12 31.7131 16.4852 31.7131 22.0138C31.7131 22.7998 31.8007 23.5642 31.972 24.2975C23.6722 23.8786 16.3126 19.8934 11.3871 13.8335C10.5295 15.3136 10.035 17.0328 10.035 18.8673C10.035 22.342 11.798 25.4094 14.479 27.2039C12.8406 27.1531 11.3015 26.7021 9.95625 25.9513C9.95478 25.9933 9.95478 26.0343 9.95478 26.0792C9.95478 30.9295 13.397 34.9792 17.9664 35.8968C17.1273 36.1262 16.2444 36.2492 15.3332 36.2492C14.6907 36.2492 14.0647 36.1858 13.4563 36.0686C14.7277 40.048 18.4143 42.9438 22.7851 43.0247C19.3672 45.7115 15.0616 47.3117 10.3821 47.3117C9.57699 47.3117 8.78166 47.2658 8 47.173C12.4196 50.0141 17.6675 51.6718 23.3079 51.6718" fill="#1DA1F2"/>
</svg>
