<?xml version="1.0" standalone="no"?>
<!DOCTYPE svg PUBLIC "-//W3C//DTD SVG 20010904//EN"
 "http://www.w3.org/TR/2001/REC-SVG-20010904/DTD/svg10.dtd">
<svg version="1.0" xmlns="http://www.w3.org/2000/svg"
 width="600.000000pt" height="600.000000pt" viewBox="0 0 600.000000 600.000000"
 preserveAspectRatio="xMidYMid meet">
<metadata>
Created by potrace 1.14, written by Peter Selinger 2001-2017
</metadata>
<g transform="translate(0.000000,600.000000) scale(0.100000,-0.100000)"
fill="#000000" stroke="none">
<path d="M0 3000 l0 -3000 3000 0 3000 0 0 3000 0 3000 -3000 0 -3000 0 0
-3000z m3547 1974 c445 -80 830 -413 973 -842 45 -137 230 -1040 230 -1126 -1
-257 -198 -481 -456 -518 -71 -10 -93 -9 -195 10 -135 26 -175 27 -254 7 -225
-58 -367 -238 -367 -465 -1 -374 391 -596 739 -419 104 53 209 179 245 294 5
16 13 86 18 154 7 113 10 127 37 165 32 47 101 86 150 86 67 0 138 -44 171
-105 25 -44 20 -252 -7 -360 -45 -176 -161 -357 -301 -473 -73 -59 -235 -143
-325 -167 -95 -26 -313 -31 -415 -11 -334 68 -598 328 -671 661 -19 88 -16
285 5 368 45 172 108 282 235 407 127 125 223 181 392 227 88 24 307 24 405 1
56 -14 78 -15 110 -7 49 14 101 69 110 116 10 52 -181 965 -225 1080 -132 339
-460 563 -824 563 -114 0 -402 -31 -516 -56 -193 -42 -374 -157 -493 -313
-132 -175 -200 -421 -169 -621 7 -41 84 -372 172 -735 88 -363 165 -698 170
-744 42 -362 -172 -729 -515 -886 -132 -61 -188 -70 -416 -70 l-205 0 -95 33
c-322 112 -532 370 -570 701 -43 377 196 728 567 833 59 17 106 22 193 23 246
1 363 -68 363 -212 0 -86 -65 -163 -150 -179 -18 -3 -72 2 -120 11 -72 14 -99
15 -148 6 -133 -24 -249 -112 -303 -229 -20 -43 -27 -78 -30 -143 -7 -139 31
-241 124 -339 98 -103 198 -140 376 -140 59 0 131 5 160 11 178 37 329 179
382 358 35 121 29 162 -130 815 -198 815 -194 796 -200 926 -18 335 99 651
331 898 186 198 408 321 660 367 67 12 315 43 470 59 64 6 223 -4 312 -20z"/>
</g>
</svg>
