<svg width="96" height="32" viewBox="0 0 96 32" fill="none" xmlns="http://www.w3.org/2000/svg">
<path d="M12.1951 21.9953H11.1406C10.3963 21.9953 10.0241 21.4991 10.0241 20.7857V5.31013H5V20.7237C5 25.0966 6.61269 27.0194 10.9856 27.0194H12.1951V21.9953Z" fill="white"/>
<path d="M21.5919 11.2647C17.188 11.2647 13.5904 14.8622 13.5904 19.2661C13.5904 23.67 17.188 27.2675 21.5919 27.2675C25.9957 27.2675 29.5933 23.67 29.5933 19.2661C29.5933 14.8622 25.9957 11.2647 21.5919 11.2647ZM21.5919 16.2888C23.2356 16.2888 24.5691 17.6224 24.5691 19.2661C24.5691 20.9098 23.2356 22.2434 21.5919 22.2434C19.9481 22.2434 18.6146 20.9098 18.6146 19.2661C18.6146 17.6224 19.9481 16.2888 21.5919 16.2888Z" fill="white"/>
<path d="M37.9412 9.74503H40.3912V5.31013H37.9412C34.0025 5.31013 31.4594 7.35701 31.4594 11.4818V27.0194H36.3905L36.4215 15.8857H40.3912V11.5128H36.4215V11.2337C36.4215 10.3963 37.0418 9.74503 37.9412 9.74503Z" fill="white"/>
<path d="M47.9824 7.79119C47.9824 9.49692 46.8039 10.6444 45.0982 10.6444C43.6096 10.6444 42.276 9.49692 42.276 7.79119C42.276 6.33357 43.6096 5 45.0982 5C46.8039 5 47.9824 6.33357 47.9824 7.79119ZM47.5793 27.0194H42.6792V11.5128H47.5793V27.0194Z" fill="white"/>
<path d="M59.1479 11.5128H56.915C55.9536 11.5128 55.0232 11.6678 54.1238 12.2261V11.5128H50.2781V27.0194H55.2403V18.0876C55.2403 17.0642 56.0776 16.2578 57.1011 16.2578H59.1479V11.5128Z" fill="white"/>
<path d="M68.0049 27.2675C64.2213 27.2675 61.151 24.1972 61.151 20.4136V11.5128H66.1441V20.4136C66.1441 21.437 66.9814 22.2744 68.0049 22.2744C69.0283 22.2744 69.8657 21.437 69.8657 20.4136V11.5128H74.8588V20.4136C74.8588 24.1972 71.7885 27.2675 68.0049 27.2675Z" fill="white"/>
<path d="M84.5492 11.2647C83.3707 11.2647 82.2543 11.6058 81.1998 12.2261V11.5128H77.3542V27.0194H82.3163V18.0876C82.3163 17.0642 83.1536 16.2578 84.1771 16.2578C85.2005 16.2578 86.0069 17.0642 86.0069 18.0876V27.0194H91V18.0876C91 14.335 88.1778 11.2647 84.5492 11.2647Z" fill="white"/>
</svg>
